<svg id="Layer_1" data-name="Layer 1" xmlns="http://www.w3.org/2000/svg" viewBox="0 0 324.685 380.733"><defs><style>.cls-1,.cls-4{fill:#fff;}.cls-2,.cls-3,.cls-4{stroke:#000;stroke-miterlimit:10;}.cls-2{stroke-width:2.56px;}.cls-3{stroke-width:5.384px;}.cls-4{stroke-width:7.206px;}</style></defs><polygon class="cls-1" points="18.736 210.532 18.736 108.598 148.066 55.584 277.396 108.598 277.396 210.532 148.066 263.545 18.736 210.532"/><path d="M300.82,138.967l121.481,49.8v91.4l-121.481,49.8-121.48-49.8v-91.4l121.48-49.8m0-16.967L163.641,178.232V290.7L300.82,346.928,438,290.7V178.232L300.82,122Z" transform="translate(-152.754 -74.899)"/><path class="cls-2" d="M349.458,283.627q0,2.305-5.039,3.764a47.378,47.378,0,0,1-12.879,1.458H263.385a46.459,46.459,0,0,1-12.8-1.458q-4.962-1.458-4.96-3.764V215.235h22.238v67.828H327.22V215.235h22.238Z" transform="translate(-152.754 -74.899)"/><ellipse class="cls-1" cx="294.522" cy="166.25" rx="9.481" ry="7.262" transform="translate(-166.701 -47.32) rotate(-5.238)"/><path d="M339.375,83.236a119.029,119.029,0,0,0-12.532-3.555,111.638,111.638,0,0,0-12.838-2.051A120.071,120.071,0,0,0,288.083,78a159.23,159.23,0,0,0-25.414,5.27c-4.163,1.2-8.288,2.541-12.376,3.989-2.037.744-4.076,1.481-6.1,2.273a62.067,62.067,0,0,0-5.872,2.507,59.12,59.12,0,0,0-19.722,15.6,46.248,46.248,0,0,0-6.557,10.6,33.069,33.069,0,0,0-1.908,5.8c-.126.49-.19.985-.29,1.477l-.227,1.562c-.149,1.043-.256,2.088-.346,3.131a40.264,40.264,0,0,0,.692,12.267,28.91,28.91,0,0,0,5.008,10.815,39.039,39.039,0,0,0,8.854,8.348,68.6,68.6,0,0,0,10.944,6.156,121.478,121.478,0,0,0,11.9,4.663l12.426,4.233c8.275,2.849,16.513,5.759,24.759,8.54s16.509,5.419,24.843,7.77,16.745,4.415,25.216,6.265l12.805,2.706q6.441,1.382,12.867,2.886c8.565,2.008,17.1,4.221,25.579,6.723,16.926,5.035,33.736,11.134,49.476,19.957,3.926,2.212,7.774,4.6,11.5,7.211a94.79,94.79,0,0,1,10.734,8.694,70.338,70.338,0,0,1,16.517,22.748,48.506,48.506,0,0,1,3.817,14.17,43.639,43.639,0,0,1,.123,7.526,41.607,41.607,0,0,1-1.318,7.47,43.173,43.173,0,0,1-6.5,13.515A57.187,57.187,0,0,1,459.5,323.379a106.784,106.784,0,0,1-23.636,14.256,202.188,202.188,0,0,1-25.2,9.51c-4.281,1.35-8.619,2.445-12.948,3.566l-6.534,1.478c-2.173.516-4.373.875-6.558,1.314-8.767,1.605-17.58,2.871-26.419,3.675a362.1,362.1,0,0,1-53.054,1.154c-4.414-.159-8.816-.524-13.219-.81-4.4-.4-8.8-.719-13.175-1.267-4.387-.459-8.754-1.082-13.122-1.665l-6.535-1c-2.18-.322-4.351-.692-6.52-1.085-8.689-1.46-17.307-3.314-25.863-5.384q-12.841-3.074-25.42-7.106c-8.382-2.666-16.669-5.632-24.773-9.033a248.6,248.6,0,0,1-23.774-11.294l.492-.99c7.972,3.545,16.124,6.629,24.354,9.434,4.109,1.425,8.28,2.662,12.426,3.953,4.18,1.194,8.35,2.4,12.566,3.452a428.884,428.884,0,0,0,51.09,9.812c2.145.3,4.294.577,6.449.807l6.456.724c4.314.4,8.621.838,12.942,1.114,4.315.344,8.637.559,12.954.809,4.323.146,8.642.372,12.964.393,8.642.181,17.282,0,25.9-.4,8.62-.333,17.208-1.073,25.751-2.054,8.547-.96,17.024-2.366,25.409-4.085,2.09-.455,4.2-.816,6.275-1.338l6.233-1.486c4.115-1.122,8.24-2.211,12.279-3.54l3.041-.961,3-1.066c2-.714,4.008-1.379,6-2.164,3.982-1.525,7.906-3.151,11.733-4.916,7.62-3.556,15-7.567,21.209-12.62a48.172,48.172,0,0,0,8.122-8.316,32,32,0,0,0,4.971-9.9c2.122-7.041,1.271-14.839-1.693-22.061a60.211,60.211,0,0,0-13.72-19.64,81.549,81.549,0,0,0-9.468-7.969c-3.391-2.463-6.933-4.753-10.582-6.894-14.638-8.542-30.774-14.807-47.242-19.949-8.246-2.57-16.6-4.873-25.015-6.981q-6.312-1.584-12.666-3.044l-12.8-2.924c-8.568-2.031-17.1-4.287-25.54-6.83s-16.785-5.371-25.045-8.323-16.449-6.008-24.646-8.994l-12.31-4.44a126.931,126.931,0,0,1-12.4-5.13,74.308,74.308,0,0,1-11.739-6.9,43.755,43.755,0,0,1-9.926-9.776,34.248,34.248,0,0,1-5.626-12.934,45.183,45.183,0,0,1-.477-13.814c.125-1.13.268-2.257.454-3.372l.284-1.674c.126-.577.22-1.164.375-1.731a37.639,37.639,0,0,1,2.308-6.587A50.559,50.559,0,0,1,215.3,104.9a63.346,63.346,0,0,1,27.626-18.777c2.067-.754,4.154-1.453,6.238-2.157,4.183-1.37,8.4-2.63,12.664-3.75a162.136,162.136,0,0,1,25.985-4.743,119.671,119.671,0,0,1,26.4.335,113.461,113.461,0,0,1,12.97,2.445A120.155,120.155,0,0,1,339.751,82.2Z" transform="translate(-152.754 -74.899)"/><ellipse class="cls-3" cx="155.488" cy="120.558" rx="13.557" ry="10.144"/><ellipse class="cls-4" cx="154.456" cy="119.824" rx="9.284" ry="8.029"/><path d="M196.636,420.892a2.646,2.646,0,0,1-1.614,2.319,8.394,8.394,0,0,1-4.122.9H169.085a8.246,8.246,0,0,1-4.1-.9,2.646,2.646,0,0,1-1.588-2.319V378.729h7.119v41.815h19V378.729h7.118Z" transform="translate(-152.754 -74.899)"/><path d="M235.042,424.11h-25.6V378.729h7.118v41.815h18.486Z" transform="translate(-152.754 -74.899)"/><path d="M272.373,382.3H259.98V424.11h-7.118V382.3h-12.5v-3.566h32.006Z" transform="translate(-152.754 -74.899)"/><path d="M314.824,424.11h-7.476l-14.9-24.3.973-.812h12.7V382.3H287.837V424.11h-7.118V378.729h26.834a8.253,8.253,0,0,1,4.1.9,2.649,2.649,0,0,1,1.588,2.32v17.225q0,3.276-7.783,3.276c-.512,0-1.264-.013-2.254-.043s-1.707-.044-2.15-.044Q307.963,413.208,314.824,424.11Z" transform="translate(-152.754 -74.899)"/><path d="M359.324,420.892a2.647,2.647,0,0,1-1.613,2.319,8.4,8.4,0,0,1-4.123.9H331.159a8.244,8.244,0,0,1-4.1-.9,2.646,2.646,0,0,1-1.588-2.319V381.947a2.649,2.649,0,0,1,1.588-2.32,8.255,8.255,0,0,1,4.1-.9h22.429a8.413,8.413,0,0,1,4.123.9,2.649,2.649,0,0,1,1.613,2.32Zm-7.118-.348V382.3H332.594v38.249Z" transform="translate(-152.754 -74.899)"/><path d="M405.155,424.11h-4.916l-21.4-33.377V424.11h-6.708V378.729h5.325l21,32.8v-32.8h6.708Z" transform="translate(-152.754 -74.899)"/><path d="M425.485,424.11h-7.118V378.729h7.118Z" transform="translate(-152.754 -74.899)"/><path d="M470.958,420.892a2.648,2.648,0,0,1-1.639,2.319,8.546,8.546,0,0,1-4.147.9H444.534a8.244,8.244,0,0,1-4.1-.9,2.646,2.646,0,0,1-1.588-2.319V381.947a2.649,2.649,0,0,1,1.588-2.32,8.255,8.255,0,0,1,4.1-.9h20.638a8.557,8.557,0,0,1,4.147.9,2.65,2.65,0,0,1,1.639,2.32V392.5h-7.169V382.3h-17.82v38.249h17.82V409.379h7.169Z" transform="translate(-152.754 -74.899)"/><path d="M221.687,454.111a1.306,1.306,0,0,1-.5,1.058,1.991,1.991,0,0,1-1.3.41h-6.459a2.057,2.057,0,0,1-1.319-.41,1.29,1.29,0,0,1-.516-1.058v-5.249h2.278v5.091h5.54v-4.932l-7.081-6.9a2.151,2.151,0,0,1-.737-1.573v-4.192a1.29,1.29,0,0,1,.516-1.057,2.052,2.052,0,0,1,1.319-.41h6.459a1.985,1.985,0,0,1,1.3.41,1.306,1.306,0,0,1,.5,1.057v4.813h-2.279v-4.654h-5.54v4.363l7.114,6.9a2.113,2.113,0,0,1,.705,1.547Z" transform="translate(-152.754 -74.899)"/><path d="M236.553,454.111a1.29,1.29,0,0,1-.516,1.058,2.057,2.057,0,0,1-1.319.41h-7.18a2.023,2.023,0,0,1-1.311-.41,1.3,1.3,0,0,1-.508-1.058V436.354a1.3,1.3,0,0,1,.508-1.057,2.017,2.017,0,0,1,1.311-.41h7.18a2.052,2.052,0,0,1,1.319.41,1.29,1.29,0,0,1,.516,1.057Zm-2.278-.158v-17.44H228v17.44Z" transform="translate(-152.754 -74.899)"/><path d="M248.912,436.513H242.93v7.854h5.508v1.653H242.93v9.559h-2.279V434.887h8.261Z" transform="translate(-152.754 -74.899)"/><path d="M260.9,436.513h-3.967v19.066h-2.279V436.513h-4v-1.626H260.9Z" transform="translate(-152.754 -74.899)"/><path d="M278.908,434.887l-3.491,20.745h-1.852l-2.787-15.6q-.015-.409-.065-1.217,0,.425-.066,1.217l-2.786,15.6h-1.852l-3.491-20.745h2.261l2.18,14.927q.017.5.066,1.481a13.787,13.787,0,0,1,.066-1.481l2.655-14.927h1.95l2.64,14.927q.032.5.065,1.481,0-.5.082-1.481l2.18-14.927Z" transform="translate(-152.754 -74.899)"/><path d="M292.3,455.579h-2.262l-.9-4.6h-5.1l-.9,4.6h-2.2v-.053l4.574-20.692h2.246Zm-3.458-6.227L286.6,438.14l-2.262,11.212Z" transform="translate(-152.754 -74.899)"/><path d="M306.3,455.579H303.9l-4.769-11.08.311-.37h4.065v-7.616h-5.852v19.066h-2.278V434.887h8.589a2.019,2.019,0,0,1,1.311.41,1.3,1.3,0,0,1,.508,1.057v7.854q0,1.494-2.491,1.494c-.164,0-.4-.007-.722-.019s-.546-.02-.687-.02Q304.1,450.607,306.3,455.579Z" transform="translate(-152.754 -74.899)"/><path d="M318.132,455.579h-8.425V434.887h8.327v1.626h-6.049v7.721h5.508v1.654h-5.508v8.065h6.147Z" transform="translate(-152.754 -74.899)"/><path d="M338.539,454.111a1.284,1.284,0,0,1-.524,1.058,2.1,2.1,0,0,1-1.328.41h-6.606a2.023,2.023,0,0,1-1.311-.41,1.3,1.3,0,0,1-.508-1.058V436.354a1.3,1.3,0,0,1,.508-1.057,2.017,2.017,0,0,1,1.311-.41h6.606a2.089,2.089,0,0,1,1.328.41,1.283,1.283,0,0,1,.524,1.057v4.813h-2.295v-4.654h-5.7v17.44h5.7v-5.091h2.295Z" transform="translate(-152.754 -74.899)"/><path d="M353.357,454.111a1.29,1.29,0,0,1-.516,1.058,2.06,2.06,0,0,1-1.32.41h-7.179a2.028,2.028,0,0,1-1.312-.41,1.3,1.3,0,0,1-.508-1.058V436.354a1.3,1.3,0,0,1,.508-1.057,2.022,2.022,0,0,1,1.312-.41h7.179a2.055,2.055,0,0,1,1.32.41,1.29,1.29,0,0,1,.516,1.057Zm-2.278-.158v-17.44H344.8v17.44Z" transform="translate(-152.754 -74.899)"/><path d="M370.142,455.579H368v-13.1a15.212,15.212,0,0,1,.23-1.627l-4.2,12.786h-.459l-4.2-12.786c.152.908.23,1.45.23,1.627v13.1h-2.148V434.887h2.114l4.164,13.46a3.926,3.926,0,0,1,.066.594,3.952,3.952,0,0,1,.065-.594l4.163-13.46h2.115Z" transform="translate(-152.754 -74.899)"/><path d="M384.4,445.888a1.312,1.312,0,0,1-.516,1.064,2.04,2.04,0,0,1-1.32.416h-6.048v8.211h-2.279V434.887h8.327a2.055,2.055,0,0,1,1.32.41,1.292,1.292,0,0,1,.516,1.057Zm-2.279-.159v-9.216h-5.605v9.216Z" transform="translate(-152.754 -74.899)"/><path d="M398.351,455.579h-2.262l-.9-4.6h-5.1l-.9,4.6h-2.2v-.053l4.573-20.692h2.247Zm-3.458-6.227-2.247-11.212-2.261,11.212Z" transform="translate(-152.754 -74.899)"/><path d="M412.005,455.579h-1.573L403.58,440.36v15.219h-2.147V434.887h1.7l6.719,14.954V434.887h2.148Z" transform="translate(-152.754 -74.899)"/><path d="M426.413,435.006l-3.115,8.369a41.867,41.867,0,0,0-1.557,4.191v8.013h-2.278v-8.013a12.42,12.42,0,0,0-.705-2.115q-.787-1.9-.853-2.076l-3.114-8.369v-.119H417.1l3.524,10.352,3.491-10.352h2.3Z" transform="translate(-152.754 -74.899)"/></svg>